<svg preserveAspectRatio="none" width="100%" height="100%" overflow="visible" style="display: block;" viewBox="0 0 28 36" fill="none" xmlns="http://www.w3.org/2000/svg">
<path id="vector" fill-rule="evenodd" clip-rule="evenodd" d="M14 0C19.5228 0 24 4.47715 24 10V14H26C27.1046 14 28 14.8954 28 16V34C28 35.1046 27.1046 36 26 36H2C0.895431 36 0 35.1046 0 34V16C0 14.8954 0.895431 14 2 14H4V10C4 4.47715 8.47715 0 14 0ZM14.002 20C12.0986 20 10.5547 21.5439 10.5547 23.4473C10.555 24.6723 11.1968 25.7446 12.1602 26.3555V29.1582C12.1602 30.1754 12.9848 31 14.002 31C15.0191 31 15.8438 30.1754 15.8438 29.1582V26.3555C16.8064 25.7444 17.4469 24.6718 17.4473 23.4473C17.4473 21.5443 15.9048 20.0005 14.002 20ZM14 5C11.2386 5 9 7.23858 9 10V14H19V10C19 7.23858 16.7614 5 14 5Z" fill="var(--fill-0, #FFC413)"/>
</svg>
