<svg preserveAspectRatio="none" width="100%" height="100%" overflow="visible" style="display: block;" viewBox="0 0 15 15" fill="none" xmlns="http://www.w3.org/2000/svg">
<path id="Vector" d="M7.33333 14.6667C5.28611 14.6667 3.55208 13.9563 2.13125 12.5354C0.710417 11.1146 0 9.38056 0 7.33334C0 5.28611 0.710417 3.55209 2.13125 2.13125C3.55208 0.71042 5.28611 3.16092e-06 7.33333 3.16092e-06C8.3875 3.16092e-06 9.39583 0.217559 10.3583 0.65267C11.3208 1.08778 12.1458 1.7105 12.8333 2.52084V0.91667C12.8333 0.656948 12.9213 0.439392 13.0973 0.264003C13.2733 0.0886144 13.4909 0.000614272 13.75 3.16092e-06C14.0091 -0.00060795 14.227 0.0873922 14.4036 0.264003C14.5802 0.440614 14.6679 0.65817 14.6667 0.91667V5.5C14.6667 5.75973 14.5787 5.97759 14.4027 6.15359C14.2267 6.32959 14.0091 6.41728 13.75 6.41667H9.16667C8.90694 6.41667 8.68939 6.32867 8.514 6.15267C8.33861 5.97667 8.25061 5.75911 8.25 5.5C8.24939 5.24089 8.33739 5.02334 8.514 4.84734C8.69061 4.67134 8.90817 4.58334 9.16667 4.58334H12.1C11.6111 3.72778 10.9429 3.05556 10.0952 2.56667C9.24764 2.07778 8.327 1.83334 7.33333 1.83334C5.80556 1.83334 4.50694 2.36806 3.4375 3.4375C2.36806 4.50695 1.83333 5.80556 1.83333 7.33334C1.83333 8.86111 2.36806 10.1597 3.4375 11.2292C4.50694 12.2986 5.80556 12.8333 7.33333 12.8333C8.37222 12.8333 9.32342 12.5699 10.1869 12.0432C11.0504 11.5164 11.7187 10.8096 12.1917 9.92292C12.3139 9.70903 12.4859 9.56023 12.7078 9.4765C12.9296 9.39278 13.1548 9.38881 13.3833 9.46459C13.6278 9.54098 13.8035 9.70139 13.9104 9.94584C14.0174 10.1903 14.0097 10.4194 13.8875 10.6333C13.2611 11.8556 12.3674 12.8333 11.2063 13.5667C10.0451 14.3 8.75417 14.6667 7.33333 14.6667Z" fill="var(--fill-0, #707070)"/>
</svg>
